<svg xmlns="http://www.w3.org/2000/svg" width="1024" height="1024"><defs><clipPath id="a"><path d="M62 310h31v31H62zM62 341h31v31H62zM62 434h31v31H62zM62 496h31v31H62zM62 558h31v31H62zM62 620h31v31H62zM93 310h31v31H93zM93 341h31v31H93zM93 434h31v31H93zM93 465h31v31H93zM93 496h31v31H93zM93 527h31v31H93zM93 558h31v31H93zM93 620h31v31H93zM124 310h31v31h-31zM124 341h31v31h-31zM124 434h31v31h-31zM124 465h31v31h-31zM124 620h31v31h-31zM124 651h31v31h-31zM155 310h31v31h-31zM155 372h31v31h-31zM155 403h31v31h-31zM155 434h31v31h-31zM155 465h31v31h-31zM155 496h31v31h-31zM155 620h31v31h-31zM186 310h31v31h-31zM186 403h31v31h-31zM186 496h31v31h-31zM186 558h31v31h-31zM186 651h31v31h-31zM217 372h31v31h-31zM217 465h31v31h-31zM217 496h31v31h-31zM217 527h31v31h-31zM217 589h31v31h-31zM217 651h31v31h-31zM248 310h31v31h-31zM248 372h31v31h-31zM248 434h31v31h-31zM248 496h31v31h-31zM248 558h31v31h-31zM248 620h31v31h-31zM248 682h31v31h-31zM279 310h31v31h-31zM279 341h31v31h-31zM279 372h31v31h-31zM279 403h31v31h-31zM279 496h31v31h-31zM279 558h31v31h-31zM279 589h31v31h-31zM279 620h31v31h-31zM310 93h31v31h-31zM310 124h31v31h-31zM310 186h31v31h-31zM310 248h31v31h-31zM310 279h31v31h-31zM310 341h31v31h-31zM310 403h31v31h-31zM310 434h31v31h-31zM310 465h31v31h-31zM310 527h31v31h-31zM310 558h31v31h-31zM310 620h31v31h-31zM310 682h31v31h-31zM310 744h31v31h-31zM310 806h31v31h-31zM310 837h31v31h-31zM310 868h31v31h-31zM310 899h31v31h-31zM310 930h31v31h-31zM341 62h31v31h-31zM341 155h31v31h-31zM341 186h31v31h-31zM341 217h31v31h-31zM341 310h31v31h-31zM341 403h31v31h-31zM341 434h31v31h-31zM341 496h31v31h-31zM341 527h31v31h-31zM341 620h31v31h-31zM341 651h31v31h-31zM341 744h31v31h-31zM341 837h31v31h-31zM341 868h31v31h-31zM341 930h31v31h-31zM372 217h31v31h-31zM372 248h31v31h-31zM372 279h31v31h-31zM372 310h31v31h-31zM372 341h31v31h-31zM372 465h31v31h-31zM372 527h31v31h-31zM372 620h31v31h-31zM372 775h31v31h-31zM372 806h31v31h-31zM372 868h31v31h-31zM372 899h31v31h-31zM372 930h31v31h-31zM403 62h31v31h-31zM403 124h31v31h-31zM403 155h31v31h-31zM403 186h31v31h-31zM403 341h31v31h-31zM403 403h31v31h-31zM403 589h31v31h-31zM403 620h31v31h-31zM403 651h31v31h-31zM403 713h31v31h-31zM403 744h31v31h-31zM403 899h31v31h-31zM434 248h31v31h-31zM434 279h31v31h-31zM434 310h31v31h-31zM434 372h31v31h-31zM434 589h31v31h-31zM434 620h31v31h-31zM434 651h31v31h-31zM434 744h31v31h-31zM434 775h31v31h-31zM434 868h31v31h-31zM465 62h31v31h-31zM465 155h31v31h-31zM465 279h31v31h-31zM465 434h31v31h-31zM465 465h31v31h-31zM465 496h31v31h-31zM465 682h31v31h-31zM465 713h31v31h-31zM465 744h31v31h-31zM465 775h31v31h-31zM496 93h31v31h-31zM496 124h31v31h-31zM496 186h31v31h-31zM496 217h31v31h-31zM496 248h31v31h-31zM496 279h31v31h-31zM496 310h31v31h-31zM496 341h31v31h-31zM496 434h31v31h-31zM496 496h31v31h-31zM496 527h31v31h-31zM496 558h31v31h-31zM496 589h31v31h-31zM496 744h31v31h-31zM496 775h31v31h-31zM496 868h31v31h-31zM496 899h31v31h-31zM496 930h31v31h-31zM527 93h31v31h-31zM527 341h31v31h-31zM527 372h31v31h-31zM527 403h31v31h-31zM527 434h31v31h-31zM527 465h31v31h-31zM527 558h31v31h-31zM527 651h31v31h-31zM527 744h31v31h-31zM527 775h31v31h-31zM558 62h31v31h-31zM558 93h31v31h-31zM558 124h31v31h-31zM558 155h31v31h-31zM558 186h31v31h-31zM558 217h31v31h-31zM558 248h31v31h-31zM558 341h31v31h-31zM558 372h31v31h-31zM558 403h31v31h-31zM558 434h31v31h-31zM558 496h31v31h-31zM558 713h31v31h-31zM558 744h31v31h-31zM558 775h31v31h-31zM558 837h31v31h-31zM558 899h31v31h-31zM558 930h31v31h-31zM589 93h31v31h-31zM589 124h31v31h-31zM589 279h31v31h-31zM589 310h31v31h-31zM589 341h31v31h-31zM589 434h31v31h-31zM589 496h31v31h-31zM589 527h31v31h-31zM589 682h31v31h-31zM589 713h31v31h-31zM589 775h31v31h-31zM589 837h31v31h-31zM589 899h31v31h-31zM589 930h31v31h-31zM620 62h31v31h-31zM620 155h31v31h-31zM620 186h31v31h-31zM620 248h31v31h-31zM620 279h31v31h-31zM620 310h31v31h-31zM620 403h31v31h-31zM620 465h31v31h-31zM620 589h31v31h-31zM620 682h31v31h-31zM620 713h31v31h-31zM620 837h31v31h-31zM620 868h31v31h-31zM620 899h31v31h-31zM620 930h31v31h-31zM651 93h31v31h-31zM651 155h31v31h-31zM651 279h31v31h-31zM651 310h31v31h-31zM651 496h31v31h-31zM651 527h31v31h-31zM651 589h31v31h-31zM651 744h31v31h-31zM651 899h31v31h-31zM651 930h31v31h-31zM682 62h31v31h-31zM682 248h31v31h-31zM682 279h31v31h-31zM682 310h31v31h-31zM682 372h31v31h-31zM682 403h31v31h-31zM682 434h31v31h-31zM682 558h31v31h-31zM682 589h31v31h-31zM682 651h31v31h-31zM682 682h31v31h-31zM682 713h31v31h-31zM682 744h31v31h-31zM682 775h31v31h-31zM682 806h31v31h-31zM682 837h31v31h-31zM713 310h31v31h-31zM713 341h31v31h-31zM713 434h31v31h-31zM713 465h31v31h-31zM713 496h31v31h-31zM713 589h31v31h-31zM713 682h31v31h-31zM713 806h31v31h-31zM713 930h31v31h-31zM744 310h31v31h-31zM744 341h31v31h-31zM744 620h31v31h-31zM744 651h31v31h-31zM744 682h31v31h-31zM744 744h31v31h-31zM744 806h31v31h-31zM744 868h31v31h-31zM744 930h31v31h-31zM775 341h31v31h-31zM775 372h31v31h-31zM775 496h31v31h-31zM775 558h31v31h-31zM775 589h31v31h-31zM775 620h31v31h-31zM775 682h31v31h-31zM775 806h31v31h-31zM775 930h31v31h-31zM806 310h31v31h-31zM806 403h31v31h-31zM806 434h31v31h-31zM806 527h31v31h-31zM806 558h31v31h-31zM806 620h31v31h-31zM806 682h31v31h-31zM806 713h31v31h-31zM806 744h31v31h-31zM806 775h31v31h-31zM806 806h31v31h-31zM806 837h31v31h-31zM806 899h31v31h-31zM837 341h31v31h-31zM837 372h31v31h-31zM837 527h31v31h-31zM837 558h31v31h-31zM837 620h31v31h-31zM837 682h31v31h-31zM837 713h31v31h-31zM837 806h31v31h-31zM868 310h31v31h-31zM868 341h31v31h-31zM868 465h31v31h-31zM868 527h31v31h-31zM868 558h31v31h-31zM868 620h31v31h-31zM868 651h31v31h-31zM868 775h31v31h-31zM868 806h31v31h-31zM868 837h31v31h-31zM868 868h31v31h-31zM868 930h31v31h-31zM899 310h31v31h-31zM899 341h31v31h-31zM899 372h31v31h-31zM899 403h31v31h-31zM899 465h31v31h-31zM899 496h31v31h-31zM899 558h31v31h-31zM899 589h31v31h-31zM899 620h31v31h-31zM899 682h31v31h-31zM899 744h31v31h-31zM899 775h31v31h-31zM899 899h31v31h-31zM930 341h31v31h-31zM930 372h31v31h-31zM930 465h31v31h-31zM930 496h31v31h-31zM930 527h31v31h-31zM930 558h31v31h-31zM930 589h31v31h-31zM930 651h31v31h-31zM930 682h31v31h-31zM930 713h31v31h-31zM930 806h31v31h-31zM930 899h31v31h-31zM930 930h31v31h-31z"/></clipPath><clipPath id="b"><path d="M62 62h31v31H62zM62 93h31v31H62zM62 124h31v31H62zM62 155h31v31H62zM62 186h31v31H62zM62 217h31v31H62zM62 248h31v31H62zM93 62h31v31H93zM93 248h31v31H93zM124 62h31v31h-31zM124 248h31v31h-31zM155 62h31v31h-31zM155 248h31v31h-31zM186 62h31v31h-31zM186 248h31v31h-31zM217 62h31v31h-31zM217 248h31v31h-31zM248 62h31v31h-31zM248 93h31v31h-31zM248 124h31v31h-31zM248 155h31v31h-31zM248 186h31v31h-31zM248 217h31v31h-31zM248 248h31v31h-31z"/></clipPath><clipPath id="c"><path d="M124 124h31v31h-31zM124 155h31v31h-31zM124 186h31v31h-31zM155 124h31v31h-31zM155 155h31v31h-31zM155 186h31v31h-31zM186 124h31v31h-31zM186 155h31v31h-31zM186 186h31v31h-31z"/></clipPath><clipPath id="d"><path d="M744 62h31v31h-31zM744 93h31v31h-31zM744 124h31v31h-31zM744 155h31v31h-31zM744 186h31v31h-31zM744 217h31v31h-31zM744 248h31v31h-31zM775 62h31v31h-31zM775 248h31v31h-31zM806 62h31v31h-31zM806 248h31v31h-31zM837 62h31v31h-31zM837 248h31v31h-31zM868 62h31v31h-31zM868 248h31v31h-31zM899 62h31v31h-31zM899 248h31v31h-31zM930 62h31v31h-31zM930 93h31v31h-31zM930 124h31v31h-31zM930 155h31v31h-31zM930 186h31v31h-31zM930 217h31v31h-31zM930 248h31v31h-31z"/></clipPath><clipPath id="e"><path d="M806 124h31v31h-31zM806 155h31v31h-31zM806 186h31v31h-31zM837 124h31v31h-31zM837 155h31v31h-31zM837 186h31v31h-31zM868 124h31v31h-31zM868 155h31v31h-31zM868 186h31v31h-31z"/></clipPath><clipPath id="f"><path d="M62 744h31v31H62zM62 775h31v31H62zM62 806h31v31H62zM62 837h31v31H62zM62 868h31v31H62zM62 899h31v31H62zM62 930h31v31H62zM93 744h31v31H93zM93 930h31v31H93zM124 744h31v31h-31zM124 930h31v31h-31zM155 744h31v31h-31zM155 930h31v31h-31zM186 744h31v31h-31zM186 930h31v31h-31zM217 744h31v31h-31zM217 930h31v31h-31zM248 744h31v31h-31zM248 775h31v31h-31zM248 806h31v31h-31zM248 837h31v31h-31zM248 868h31v31h-31zM248 899h31v31h-31zM248 930h31v31h-31z"/></clipPath><clipPath id="g"><path d="M124 806h31v31h-31zM124 837h31v31h-31zM124 868h31v31h-31zM155 806h31v31h-31zM155 837h31v31h-31zM155 868h31v31h-31zM186 806h31v31h-31zM186 837h31v31h-31zM186 868h31v31h-31z"/></clipPath></defs><path fill="#fefbfb" d="M0 0h1024v1024H0z"/><path d="M62 62h899v899H62z" clip-path="url('#a')"/><path d="M62 62h217v217H62z" clip-path="url('#b')"/><path d="M124 124h93v93h-93z" clip-path="url('#c')"/><path d="M744 62h217v217H744z" clip-path="url('#d')"/><path d="M806 124h93v93h-93z" clip-path="url('#e')"/><path d="M62 744h217v217H62z" clip-path="url('#f')"/><path d="M124 806h93v93h-93z" clip-path="url('#g')"/></svg>